# xmcd
#
# Track frame offsets: 
#        150
#        11071
#        24756
#        40452
#        60335
#        73523
#        88369
#        103513
#        118202
#        133976
#        147993
#
# Disc length: 2095 seconds
#
# Revision: 0
# Processed by: cddbd v1.5.2PL0 Copyright (c) Steve Scherf et al.
# Submitted via: ExactAudioCopy v0.99pb3
#
DISCID=9c082d0b
DTITLE=Clay McClinton - Livin' Out Loud
DYEAR=2010
DGENRE=Country
TTITLE0=Whole Lotta Work
TTITLE1=Puttin' Down Roots
TTITLE2=Bird For a Day
TTITLE3=Driftin' Away With You
TTITLE4=Oughta Know
TTITLE5=The One You Loved
TTITLE6=Just My Baby and Me
TTITLE7=Damage Is Done
TTITLE8=Bigger Bang a Comin'
TTITLE9=Trouble is Easy to Find
TTITLE10=Gone to Mexico
EXTD=
EXTT0=
EXTT1=
EXTT2=
EXTT3=
EXTT4=
EXTT5=
EXTT6=
EXTT7=
EXTT8=
EXTT9=
EXTT10=
PLAYORDER=
